G04 EAGLE Gerber RS-274X export*
G75*
%MOMM*%
%FSLAX34Y34*%
%LPD*%
%INSolderpaste Bottom*%
%IPPOS*%
%AMOC8*
5,1,8,0,0,1.08239X$1,22.5*%
G01*
%ADD10R,1.300000X1.500000*%
%ADD11R,1.500000X1.300000*%
%ADD12R,2.032000X0.660400*%
%ADD13R,1.000000X1.400000*%
%ADD14R,1.780000X1.550000*%
%ADD15R,0.550000X1.200000*%
%ADD16R,1.600200X1.168400*%
%ADD17R,1.600000X2.600000*%
%ADD18R,0.600000X2.200000*%
%ADD19R,1.400000X1.000000*%
%ADD20R,0.690000X0.990000*%


D10*
X387325Y298450D03*
X368325Y298450D03*
X482575Y285750D03*
X463575Y285750D03*
X454000Y415925D03*
X435000Y415925D03*
D11*
X647700Y400075D03*
X647700Y419075D03*
X711200Y419075D03*
X711200Y400075D03*
X622300Y419075D03*
X622300Y400075D03*
D12*
X475234Y396875D03*
X413766Y396875D03*
X475234Y384175D03*
X475234Y371475D03*
X413766Y384175D03*
X413766Y371475D03*
X475234Y358775D03*
X413766Y358775D03*
X475234Y346075D03*
X475234Y333375D03*
X413766Y346075D03*
X413766Y333375D03*
X475234Y320675D03*
X413766Y320675D03*
X569059Y396825D03*
X507591Y396825D03*
X569059Y384125D03*
X569059Y371425D03*
X507591Y384125D03*
X507591Y371425D03*
X569059Y358725D03*
X507591Y358725D03*
X569059Y346025D03*
X569059Y333325D03*
X507591Y346025D03*
X507591Y333325D03*
X569059Y320625D03*
X507591Y320625D03*
X408559Y279400D03*
X347091Y279400D03*
X408559Y266700D03*
X408559Y254000D03*
X347091Y266700D03*
X347091Y254000D03*
X408559Y241300D03*
X347091Y241300D03*
X408559Y228600D03*
X347091Y228600D03*
X408559Y215900D03*
X408559Y203200D03*
X347091Y215900D03*
X347091Y203200D03*
X408559Y190500D03*
X347091Y190500D03*
X503809Y266700D03*
X442341Y266700D03*
X503809Y254000D03*
X503809Y241300D03*
X442341Y254000D03*
X442341Y241300D03*
X503809Y228600D03*
X442341Y228600D03*
X503809Y215900D03*
X503809Y203200D03*
X442341Y215900D03*
X442341Y203200D03*
X503809Y190500D03*
X442341Y190500D03*
D10*
X546075Y415925D03*
X527075Y415925D03*
D13*
X679450Y395400D03*
X688950Y417400D03*
X669950Y417400D03*
D14*
X665163Y377900D03*
X690563Y377900D03*
X690563Y282500D03*
X665163Y282500D03*
D10*
X644500Y222250D03*
X625500Y222250D03*
D11*
X228600Y73000D03*
X228600Y54000D03*
X250825Y73000D03*
X250825Y54000D03*
X793750Y187350D03*
X793750Y206350D03*
D10*
X771550Y149225D03*
X790550Y149225D03*
D11*
X806450Y400075D03*
X806450Y419075D03*
X711200Y300013D03*
X711200Y281013D03*
D10*
X882675Y419100D03*
X901675Y419100D03*
D15*
X898500Y374349D03*
X889000Y374349D03*
X879500Y374349D03*
X879500Y400351D03*
X898500Y400351D03*
X889000Y400351D03*
D11*
X857250Y400075D03*
X857250Y419075D03*
D16*
X831850Y401955D03*
X831850Y417195D03*
D11*
X784225Y400075D03*
X784225Y419075D03*
X762000Y400075D03*
X762000Y419075D03*
D17*
X942975Y405350D03*
X942975Y369350D03*
D18*
X744538Y351438D03*
X744538Y299438D03*
X731838Y351438D03*
X757238Y351438D03*
X769938Y351438D03*
X731838Y299438D03*
X757238Y299438D03*
X769938Y299438D03*
D10*
X752450Y377825D03*
X733450Y377825D03*
D11*
X381000Y73000D03*
X381000Y54000D03*
X503238Y74588D03*
X503238Y55588D03*
D19*
X450963Y66675D03*
X472963Y57175D03*
X472963Y76175D03*
D20*
X841350Y171250D03*
X831850Y171250D03*
X822350Y171250D03*
X822350Y197150D03*
X841350Y197150D03*
D11*
X863600Y212700D03*
X863600Y193700D03*
X863600Y152425D03*
X863600Y171425D03*
D10*
X822350Y149225D03*
X841350Y149225D03*
D11*
X768350Y187350D03*
X768350Y206350D03*
X482600Y117450D03*
X482600Y98450D03*
X504825Y117450D03*
X504825Y98450D03*
X438150Y98450D03*
X438150Y117450D03*
X460375Y117450D03*
X460375Y98450D03*
D10*
X841350Y219075D03*
X822350Y219075D03*
D19*
X335075Y63500D03*
X357075Y54000D03*
X357075Y73000D03*
X624000Y193675D03*
X646000Y184175D03*
X646000Y203175D03*
D11*
X733425Y200000D03*
X733425Y181000D03*
X603250Y50825D03*
X603250Y69825D03*
D13*
X701675Y198325D03*
X692175Y176325D03*
X711175Y176325D03*
D11*
X577850Y50825D03*
X577850Y69825D03*
X669925Y222225D03*
X669925Y203225D03*
X650875Y50825D03*
X650875Y69825D03*
X628650Y69825D03*
X628650Y50825D03*
D14*
X638175Y282500D03*
X612775Y282500D03*
X612775Y377900D03*
X638175Y377900D03*
D11*
X865188Y50825D03*
X865188Y69825D03*
X711200Y69825D03*
X711200Y50825D03*
X733425Y69825D03*
X733425Y50825D03*
X688975Y50825D03*
X688975Y69825D03*
X754063Y50825D03*
X754063Y69825D03*
D10*
X712763Y150813D03*
X693763Y150813D03*
X712763Y130175D03*
X693763Y130175D03*
D11*
X595313Y400075D03*
X595313Y419075D03*
X319088Y54000D03*
X319088Y73000D03*
X433388Y55588D03*
X433388Y74588D03*
M02*
