G04 EAGLE Gerber RS-274X export*
G75*
%MOMM*%
%FSLAX34Y34*%
%LPD*%
%INTop Copper*%
%IPPOS*%
%AMOC8*
5,1,8,0,0,1.08239X$1,22.5*%
G01*
%ADD10C,1.828800*%
%ADD11C,2.540000*%
%ADD12C,2.540000*%
%ADD13C,2.160000*%
%ADD14C,1.800000*%
%ADD15C,5.842000*%
%ADD16C,0.609600*%
%ADD17C,0.502400*%
%ADD18C,0.127000*%
%ADD19C,0.304800*%
%ADD20C,0.406400*%
%ADD21C,0.452400*%
%ADD22C,0.152400*%
%ADD23C,0.652400*%


D10*
X492813Y474075D03*
X518213Y474075D03*
X543613Y474075D03*
X467413Y474075D03*
X442013Y474075D03*
X416613Y474075D03*
X391213Y474075D03*
X644213Y463550D03*
X618813Y463550D03*
X593413Y463550D03*
X669613Y463550D03*
X695013Y463550D03*
X720413Y463550D03*
X745813Y463550D03*
D11*
X288200Y102550D03*
X212200Y102550D03*
X135800Y381950D03*
X288200Y381950D03*
D12*
X172550Y463550D02*
X147150Y463550D01*
X119550Y463550D02*
X94150Y463550D01*
X286850Y463550D02*
X312250Y463550D01*
X259250Y463550D02*
X233850Y463550D01*
D13*
X946150Y115813D03*
X946150Y150813D03*
D10*
X611188Y25400D03*
X585788Y25400D03*
X560388Y25400D03*
X636588Y25400D03*
X230188Y25400D03*
X204788Y25400D03*
X179388Y25400D03*
X255588Y25400D03*
X738188Y25400D03*
X712788Y25400D03*
X687388Y25400D03*
X763588Y25400D03*
X788988Y25400D03*
X357188Y25400D03*
X331788Y25400D03*
X306388Y25400D03*
X382588Y25400D03*
X484188Y25400D03*
X458788Y25400D03*
X433388Y25400D03*
X509588Y25400D03*
X890588Y25400D03*
X865188Y25400D03*
X839788Y25400D03*
D14*
X901700Y254000D03*
X876300Y254000D03*
X850900Y254000D03*
X825500Y254000D03*
X800100Y254000D03*
X774700Y254000D03*
X749300Y254000D03*
X723900Y254000D03*
X698500Y254000D03*
X673100Y254000D03*
X647700Y254000D03*
X622300Y254000D03*
X901700Y228600D03*
X901700Y203200D03*
X901700Y177800D03*
X596900Y241300D03*
X596900Y215900D03*
X596900Y190500D03*
X596900Y165100D03*
X596900Y139700D03*
X596900Y114300D03*
X711200Y228600D03*
X736600Y228600D03*
X901700Y101600D03*
X876300Y101600D03*
X850900Y101600D03*
X825500Y101600D03*
X800100Y101600D03*
X774700Y101600D03*
X723900Y101600D03*
X698500Y101600D03*
X647700Y101600D03*
X622300Y101600D03*
X673100Y101600D03*
X749300Y101600D03*
D10*
X400050Y101600D03*
X374650Y101600D03*
X349250Y101600D03*
D15*
X955000Y40000D03*
X40000Y40000D03*
D13*
X946150Y203200D03*
X946150Y238200D03*
X946150Y273200D03*
D12*
X60325Y358775D02*
X34925Y358775D01*
X34925Y206375D02*
X60325Y206375D01*
D10*
X128588Y25400D03*
X103188Y25400D03*
D12*
X60325Y386715D02*
X34925Y386715D01*
X34925Y178435D02*
X60325Y178435D01*
X60325Y229235D02*
X34925Y229235D01*
X34925Y335915D02*
X60325Y335915D01*
D10*
X817613Y474075D03*
X843013Y474075D03*
X868413Y474075D03*
X839788Y292100D03*
X814388Y292100D03*
X788988Y292100D03*
X865188Y292100D03*
X890588Y292100D03*
D13*
X878000Y457000D03*
X843000Y457000D03*
X808000Y457000D03*
D16*
X288200Y102550D02*
X288200Y82550D01*
X306388Y82550D01*
X349250Y82550D01*
X420688Y82550D01*
X484281Y82550D01*
X552450Y82550D01*
X596900Y82550D02*
X669925Y82550D01*
X596900Y82550D02*
X552450Y82550D01*
X669925Y82550D02*
X698500Y82550D01*
X839788Y82550D01*
X955675Y82550D01*
X986425Y82550D01*
D17*
X839788Y82550D03*
X955675Y82550D03*
X669925Y82550D03*
X552450Y82550D03*
X349250Y82550D03*
X306388Y82550D03*
D16*
X288200Y82550D02*
X179388Y82550D01*
D17*
X179388Y82550D03*
D16*
X41275Y82550D01*
X40000Y81275D01*
X40000Y40000D01*
D17*
X986425Y82550D03*
D16*
X650875Y257175D02*
X647700Y254000D01*
X650875Y257175D02*
X650875Y268288D01*
D17*
X822325Y231775D03*
D16*
X596900Y114300D02*
X596900Y82550D01*
D17*
X698500Y82550D03*
X484281Y82550D03*
X901700Y152400D03*
D18*
X357188Y25400D02*
X353060Y25400D01*
X341630Y36830D01*
X317818Y36830D01*
X306388Y25400D01*
D17*
X669925Y25400D03*
D16*
X687388Y25400D01*
X822325Y231775D02*
X863600Y231775D01*
X863600Y152400D01*
X901700Y152400D01*
X944563Y152400D02*
X946150Y150813D01*
X944563Y152400D02*
X901700Y152400D01*
D19*
X577850Y7938D02*
X560388Y25400D01*
X593725Y7938D02*
X611188Y25400D01*
X593725Y7938D02*
X577850Y7938D01*
D16*
X819150Y136525D02*
X847725Y136525D01*
X863600Y152400D01*
D17*
X819150Y136525D03*
X420688Y82550D03*
X769938Y280988D03*
X623888Y268288D03*
D16*
X650875Y268288D01*
X686800Y268288D01*
D17*
X686800Y268288D03*
X731838Y280988D03*
D16*
X769938Y280988D01*
X561975Y74544D02*
X412750Y74544D01*
X212200Y74544D01*
X677693Y74544D02*
X788988Y74544D01*
X890588Y74544D01*
D17*
X890588Y74544D03*
X788988Y74544D03*
X212200Y74544D03*
D16*
X609600Y254000D02*
X622300Y254000D01*
X609600Y254000D02*
X606425Y257175D01*
X581025Y257175D01*
D17*
X581025Y257175D03*
X581025Y165100D03*
D16*
X596900Y165100D01*
D17*
X581025Y92075D03*
D16*
X561975Y92075D01*
D17*
X561975Y92075D03*
X561975Y74544D03*
D16*
X622300Y247650D02*
X622300Y254000D01*
X622300Y247650D02*
X631825Y238125D01*
X695325Y238125D01*
X698500Y241300D01*
X698500Y254000D01*
D17*
X793750Y165100D03*
D16*
X692150Y165100D02*
X596900Y165100D01*
X692150Y165100D02*
X793750Y165100D01*
X850900Y165100D01*
D17*
X692150Y165100D03*
X412750Y74544D03*
X368300Y53975D03*
D18*
X409575Y53975D01*
D17*
X409575Y53975D03*
X850900Y165100D03*
X677693Y74544D03*
X768350Y50800D03*
D18*
X788988Y50800D01*
D17*
X788988Y50800D03*
D16*
X677693Y74544D02*
X561975Y74544D01*
D17*
X661988Y61913D03*
D20*
X677693Y61913D01*
D17*
X677693Y61913D03*
X473075Y39688D03*
D18*
X423863Y39688D01*
X409575Y53975D01*
D17*
X723900Y290513D03*
D16*
X723900Y273200D01*
D17*
X768500Y271613D03*
D16*
X763572Y271613D01*
X763242Y271943D01*
X725158Y271943D02*
X723900Y273200D01*
X725158Y271943D02*
X763242Y271943D01*
X716443Y271943D02*
X698500Y254000D01*
X716443Y271943D02*
X725158Y271943D01*
D18*
X485214Y491877D02*
X467413Y474075D01*
X485214Y491877D02*
X614877Y491877D01*
X617170Y489583D01*
X665583Y489583D01*
X669000Y493000D01*
D17*
X669000Y493000D03*
D21*
X515938Y427038D03*
D18*
X515938Y471800D02*
X518213Y474075D01*
X515938Y471800D02*
X515938Y427038D01*
X518213Y474075D02*
X530138Y486000D01*
X613569Y486000D02*
X615066Y484503D01*
X699460Y484503D02*
X720413Y463550D01*
X699460Y484503D02*
X615066Y484503D01*
X613569Y486000D02*
X530138Y486000D01*
D21*
X442913Y296863D03*
D18*
X442913Y424175D02*
X492813Y474075D01*
X442913Y424175D02*
X442913Y296863D01*
X492813Y474075D02*
X508074Y489337D01*
X613825Y489337D02*
X616118Y487043D01*
X691043Y487043D01*
X695000Y491000D01*
D17*
X695000Y491000D03*
D18*
X613825Y489337D02*
X508074Y489337D01*
X437538Y495000D02*
X416613Y474075D01*
X618000Y495000D02*
X619000Y494000D01*
D17*
X619000Y494000D03*
D18*
X618000Y495000D02*
X437538Y495000D01*
X457200Y249238D02*
X457200Y203200D01*
X457200Y249238D02*
X461963Y254000D01*
X461963Y257175D01*
X457200Y261938D01*
X457200Y282575D01*
X578625Y404000D01*
D21*
X457200Y203200D03*
D18*
X578625Y404000D02*
X609000Y404000D01*
D17*
X609000Y404000D03*
D18*
X644213Y439213D01*
X644213Y463550D01*
X546100Y365125D02*
X471488Y290513D01*
X471488Y273050D01*
X461963Y263525D01*
D21*
X546100Y365125D03*
X461963Y263525D03*
D18*
X657225Y417513D02*
X698500Y417513D01*
X657225Y417513D02*
X600075Y360363D01*
D21*
X698500Y417513D03*
X600075Y360363D03*
X336550Y128270D03*
D17*
X690563Y204788D03*
D18*
X711200Y225425D01*
X711200Y228600D01*
D17*
X606425Y152400D03*
D18*
X604630Y150605D01*
X591241Y150605D01*
X576526Y135890D01*
X344170Y135890D02*
X336550Y128270D01*
X344170Y135890D02*
X576526Y135890D01*
D17*
X760413Y265113D03*
D18*
X734805Y249483D02*
X728417Y243095D01*
X725695Y243095D01*
X711200Y228600D01*
X744991Y265113D02*
X760413Y265113D01*
X744991Y265113D02*
X734805Y254927D01*
X734805Y249483D01*
X762000Y203200D02*
X762000Y175260D01*
D21*
X762000Y175260D03*
D17*
X412750Y15875D03*
D18*
X403225Y6350D01*
X255588Y6350D02*
X255588Y25400D01*
X255588Y6350D02*
X403225Y6350D01*
D22*
X762000Y203200D02*
X762000Y228600D01*
D17*
X760413Y157163D03*
D22*
X760413Y107950D01*
D17*
X760413Y107950D03*
D18*
X762000Y228600D02*
X736600Y228600D01*
D17*
X750888Y365125D03*
D18*
X757238Y371475D01*
X785813Y371475D01*
D17*
X785813Y371475D03*
X731838Y144463D03*
D18*
X731838Y109538D01*
X723900Y101600D01*
D17*
X461963Y46038D03*
D18*
X492125Y46038D01*
D17*
X492125Y46038D03*
D21*
X769938Y66675D03*
D18*
X525463Y66675D01*
X509588Y50800D01*
X509588Y25400D01*
X800100Y254000D02*
X812800Y241300D01*
X876300Y241300D01*
X876300Y161925D01*
D17*
X876300Y161925D03*
X876300Y136525D03*
D18*
X917575Y136525D01*
X919163Y134938D01*
X919163Y95250D01*
D17*
X919163Y95250D03*
X917575Y50800D03*
D18*
X879475Y50800D01*
D17*
X879475Y50800D03*
X925513Y95250D03*
D18*
X925513Y134938D01*
X917575Y142875D01*
X881063Y142875D01*
D17*
X881063Y142875D03*
X881063Y201613D03*
D18*
X881063Y249238D01*
X876300Y254000D01*
X865188Y265113D01*
X865188Y292100D01*
D17*
X528638Y36513D03*
D18*
X528701Y36449D02*
X814630Y36449D01*
X528701Y36449D02*
X528638Y36513D01*
D17*
X828675Y36513D03*
D18*
X814693Y36513D01*
X814630Y36449D01*
D21*
X833438Y90488D03*
D18*
X926997Y90488D02*
X930275Y93766D01*
X930275Y138113D01*
X923925Y144463D01*
D17*
X923925Y144463D03*
X923925Y163513D03*
D18*
X923925Y231775D01*
X901700Y254000D01*
X926997Y90488D02*
X833438Y90488D01*
X806450Y222250D02*
X774700Y254000D01*
X806450Y222250D02*
X806450Y173038D01*
D17*
X806450Y173038D03*
X803275Y157163D03*
D18*
X803275Y115888D01*
X812800Y106363D01*
X812800Y92075D01*
D17*
X812800Y92075D03*
X812800Y40866D03*
D18*
X768759Y40866D01*
X768350Y41275D01*
D17*
X768350Y41275D03*
X781050Y136525D03*
D18*
X781050Y123825D01*
D17*
X781050Y123825D03*
X727075Y130175D03*
X565150Y127000D03*
D18*
X601417Y128795D02*
X602797Y130175D01*
X566945Y128795D02*
X565150Y127000D01*
X566945Y128795D02*
X601417Y128795D01*
X602797Y130175D02*
X727075Y130175D01*
D17*
X685800Y219075D03*
D18*
X685800Y184150D01*
X679450Y177800D01*
D17*
X679450Y177800D03*
X715963Y114300D03*
X685000Y114000D03*
D18*
X715663Y114000D01*
X715963Y114300D01*
D17*
X670000Y192000D03*
D18*
X670000Y179000D01*
D17*
X670000Y179000D03*
X684000Y92000D03*
D18*
X692678Y92000D01*
X814630Y87658D02*
X817217Y90245D01*
X817217Y93317D01*
X825500Y101600D01*
X697020Y87658D02*
X692678Y92000D01*
X697020Y87658D02*
X814630Y87658D01*
D17*
X741363Y123825D03*
D18*
X738188Y127000D01*
X738188Y152400D01*
X733425Y157163D01*
D17*
X733425Y157163D03*
X800100Y58738D03*
D18*
X680765Y58738D01*
X679523Y57496D01*
X642592Y57496D01*
X639763Y60325D01*
D17*
X639763Y60325D03*
D16*
X428625Y355600D02*
X428625Y403225D01*
X428625Y355600D02*
X387350Y314325D01*
D23*
X387350Y314325D03*
D16*
X377825Y266700D02*
X377825Y228600D01*
X377825Y203200D01*
D17*
X377825Y266700D03*
X377825Y228600D03*
X377825Y203200D03*
X377825Y180975D03*
D16*
X377825Y203200D01*
D17*
X908050Y368300D03*
X857250Y384175D03*
D16*
X857250Y353025D01*
D17*
X857250Y353025D03*
X733425Y446088D03*
D16*
X733425Y423863D01*
D17*
X733425Y423863D03*
X587375Y373063D03*
X428625Y403225D03*
X493713Y304800D03*
D16*
X493713Y180975D01*
X494284Y180975D01*
D17*
X494284Y180975D03*
D16*
X428625Y403225D02*
X428625Y442913D01*
D17*
X428625Y442913D03*
D16*
X908050Y401638D02*
X912813Y406400D01*
D17*
X912813Y406400D03*
D16*
X908050Y401638D02*
X908050Y368300D01*
D17*
X785813Y446088D03*
X582613Y442913D03*
X557213Y417513D03*
D16*
X557213Y442913D01*
D17*
X557213Y442913D03*
X777875Y388938D03*
D16*
X744538Y388938D01*
X742950Y390525D01*
X733425Y390525D01*
D17*
X733425Y390525D03*
D16*
X587375Y373063D02*
X546100Y331788D01*
D17*
X546100Y320625D03*
D16*
X546100Y331788D01*
X557213Y442913D02*
X543613Y456513D01*
X543613Y474075D01*
D23*
X346075Y301625D03*
D16*
X419100Y360363D02*
X419100Y434975D01*
X419100Y360363D02*
X379413Y320675D01*
X365125Y320675D01*
X346075Y301625D01*
D23*
X327025Y301625D03*
D16*
X327025Y279400D01*
X327025Y254000D01*
X327025Y241300D01*
X327025Y215900D01*
D17*
X508000Y406400D03*
D16*
X508000Y434975D01*
D17*
X508000Y434975D03*
X419100Y434975D03*
X327025Y215900D03*
X327025Y241300D03*
X327025Y254000D03*
X327025Y279400D03*
X882650Y434975D03*
X920750Y406400D03*
D16*
X904875Y434975D02*
X882650Y434975D01*
D17*
X904875Y434975D03*
D16*
X920750Y419100D02*
X920750Y406400D01*
X920750Y419100D02*
X904875Y434975D01*
D17*
X836613Y434975D03*
D16*
X419100Y434975D02*
X391213Y462863D01*
X391213Y474075D01*
X593413Y463550D02*
X593413Y435413D01*
X593000Y435000D01*
X593000Y434975D01*
D17*
X593000Y434975D03*
D18*
X438150Y274638D02*
X457200Y255588D01*
D21*
X457200Y255588D03*
D18*
X438150Y470213D02*
X442013Y474075D01*
X438150Y470213D02*
X438150Y274638D01*
D17*
X752475Y214313D03*
D18*
X752475Y203200D01*
X722313Y173038D01*
X722313Y172764D01*
X722497Y172579D01*
D17*
X722497Y172579D03*
X737218Y118717D03*
X736113Y95737D03*
D18*
X737218Y96842D01*
X737218Y118717D01*
D17*
X723900Y214313D03*
D18*
X723900Y184150D01*
X720725Y180975D01*
X721308Y180392D01*
D17*
X721308Y180392D03*
D18*
X867400Y101600D02*
X876300Y101600D01*
X867400Y101600D02*
X837428Y131572D01*
X817098Y131572D01*
X814197Y134473D01*
X814197Y154803D02*
X812000Y157000D01*
X814197Y154803D02*
X814197Y134473D01*
D17*
X812000Y157000D03*
D18*
X871538Y407988D02*
X871827Y407988D01*
D17*
X871827Y407988D03*
D18*
X843000Y436525D02*
X843000Y457000D01*
X843000Y436525D02*
X871538Y407988D01*
X843000Y457000D02*
X843000Y474063D01*
X843013Y474075D01*
X814388Y265113D02*
X825500Y254000D01*
X814388Y265113D02*
X814388Y292100D01*
X839788Y265113D02*
X850900Y254000D01*
X839788Y265113D02*
X839788Y292100D01*
X725952Y295466D02*
X721848Y295466D01*
X729317Y292100D02*
X788988Y292100D01*
X729317Y292100D02*
X725952Y295466D01*
X680383Y254000D02*
X673100Y254000D01*
X680383Y254000D02*
X721848Y295466D01*
M02*
