G04 EAGLE Gerber RS-274X export*
G75*
%MOMM*%
%FSLAX34Y34*%
%LPD*%
%INBoard Outline*%
%IPPOS*%
%AMOC8*
5,1,8,0,0,1.08239X$1,22.5*%
G01*
%ADD10C,0.254000*%
%ADD11C,1.016000*%
%ADD12C,0.000000*%
%ADD13C,0.254000*%


D10*
X0Y0D02*
X993050Y600D01*
X993050Y500950D01*
X0Y500350D01*
X0Y0D01*
D11*
X725000Y325000D02*
X775000Y325000D01*
D12*
X940000Y460000D02*
X940005Y460368D01*
X940018Y460736D01*
X940041Y461103D01*
X940072Y461470D01*
X940113Y461836D01*
X940162Y462201D01*
X940221Y462564D01*
X940288Y462926D01*
X940364Y463287D01*
X940450Y463645D01*
X940543Y464001D01*
X940646Y464354D01*
X940757Y464705D01*
X940877Y465053D01*
X941005Y465398D01*
X941142Y465740D01*
X941287Y466079D01*
X941440Y466413D01*
X941602Y466744D01*
X941771Y467071D01*
X941949Y467393D01*
X942134Y467712D01*
X942327Y468025D01*
X942528Y468334D01*
X942736Y468637D01*
X942952Y468935D01*
X943175Y469228D01*
X943405Y469516D01*
X943642Y469798D01*
X943886Y470073D01*
X944136Y470343D01*
X944393Y470607D01*
X944657Y470864D01*
X944927Y471114D01*
X945202Y471358D01*
X945484Y471595D01*
X945772Y471825D01*
X946065Y472048D01*
X946363Y472264D01*
X946666Y472472D01*
X946975Y472673D01*
X947288Y472866D01*
X947607Y473051D01*
X947929Y473229D01*
X948256Y473398D01*
X948587Y473560D01*
X948921Y473713D01*
X949260Y473858D01*
X949602Y473995D01*
X949947Y474123D01*
X950295Y474243D01*
X950646Y474354D01*
X950999Y474457D01*
X951355Y474550D01*
X951713Y474636D01*
X952074Y474712D01*
X952436Y474779D01*
X952799Y474838D01*
X953164Y474887D01*
X953530Y474928D01*
X953897Y474959D01*
X954264Y474982D01*
X954632Y474995D01*
X955000Y475000D01*
X955368Y474995D01*
X955736Y474982D01*
X956103Y474959D01*
X956470Y474928D01*
X956836Y474887D01*
X957201Y474838D01*
X957564Y474779D01*
X957926Y474712D01*
X958287Y474636D01*
X958645Y474550D01*
X959001Y474457D01*
X959354Y474354D01*
X959705Y474243D01*
X960053Y474123D01*
X960398Y473995D01*
X960740Y473858D01*
X961079Y473713D01*
X961413Y473560D01*
X961744Y473398D01*
X962071Y473229D01*
X962393Y473051D01*
X962712Y472866D01*
X963025Y472673D01*
X963334Y472472D01*
X963637Y472264D01*
X963935Y472048D01*
X964228Y471825D01*
X964516Y471595D01*
X964798Y471358D01*
X965073Y471114D01*
X965343Y470864D01*
X965607Y470607D01*
X965864Y470343D01*
X966114Y470073D01*
X966358Y469798D01*
X966595Y469516D01*
X966825Y469228D01*
X967048Y468935D01*
X967264Y468637D01*
X967472Y468334D01*
X967673Y468025D01*
X967866Y467712D01*
X968051Y467393D01*
X968229Y467071D01*
X968398Y466744D01*
X968560Y466413D01*
X968713Y466079D01*
X968858Y465740D01*
X968995Y465398D01*
X969123Y465053D01*
X969243Y464705D01*
X969354Y464354D01*
X969457Y464001D01*
X969550Y463645D01*
X969636Y463287D01*
X969712Y462926D01*
X969779Y462564D01*
X969838Y462201D01*
X969887Y461836D01*
X969928Y461470D01*
X969959Y461103D01*
X969982Y460736D01*
X969995Y460368D01*
X970000Y460000D01*
X969995Y459632D01*
X969982Y459264D01*
X969959Y458897D01*
X969928Y458530D01*
X969887Y458164D01*
X969838Y457799D01*
X969779Y457436D01*
X969712Y457074D01*
X969636Y456713D01*
X969550Y456355D01*
X969457Y455999D01*
X969354Y455646D01*
X969243Y455295D01*
X969123Y454947D01*
X968995Y454602D01*
X968858Y454260D01*
X968713Y453921D01*
X968560Y453587D01*
X968398Y453256D01*
X968229Y452929D01*
X968051Y452607D01*
X967866Y452288D01*
X967673Y451975D01*
X967472Y451666D01*
X967264Y451363D01*
X967048Y451065D01*
X966825Y450772D01*
X966595Y450484D01*
X966358Y450202D01*
X966114Y449927D01*
X965864Y449657D01*
X965607Y449393D01*
X965343Y449136D01*
X965073Y448886D01*
X964798Y448642D01*
X964516Y448405D01*
X964228Y448175D01*
X963935Y447952D01*
X963637Y447736D01*
X963334Y447528D01*
X963025Y447327D01*
X962712Y447134D01*
X962393Y446949D01*
X962071Y446771D01*
X961744Y446602D01*
X961413Y446440D01*
X961079Y446287D01*
X960740Y446142D01*
X960398Y446005D01*
X960053Y445877D01*
X959705Y445757D01*
X959354Y445646D01*
X959001Y445543D01*
X958645Y445450D01*
X958287Y445364D01*
X957926Y445288D01*
X957564Y445221D01*
X957201Y445162D01*
X956836Y445113D01*
X956470Y445072D01*
X956103Y445041D01*
X955736Y445018D01*
X955368Y445005D01*
X955000Y445000D01*
X954632Y445005D01*
X954264Y445018D01*
X953897Y445041D01*
X953530Y445072D01*
X953164Y445113D01*
X952799Y445162D01*
X952436Y445221D01*
X952074Y445288D01*
X951713Y445364D01*
X951355Y445450D01*
X950999Y445543D01*
X950646Y445646D01*
X950295Y445757D01*
X949947Y445877D01*
X949602Y446005D01*
X949260Y446142D01*
X948921Y446287D01*
X948587Y446440D01*
X948256Y446602D01*
X947929Y446771D01*
X947607Y446949D01*
X947288Y447134D01*
X946975Y447327D01*
X946666Y447528D01*
X946363Y447736D01*
X946065Y447952D01*
X945772Y448175D01*
X945484Y448405D01*
X945202Y448642D01*
X944927Y448886D01*
X944657Y449136D01*
X944393Y449393D01*
X944136Y449657D01*
X943886Y449927D01*
X943642Y450202D01*
X943405Y450484D01*
X943175Y450772D01*
X942952Y451065D01*
X942736Y451363D01*
X942528Y451666D01*
X942327Y451975D01*
X942134Y452288D01*
X941949Y452607D01*
X941771Y452929D01*
X941602Y453256D01*
X941440Y453587D01*
X941287Y453921D01*
X941142Y454260D01*
X941005Y454602D01*
X940877Y454947D01*
X940757Y455295D01*
X940646Y455646D01*
X940543Y455999D01*
X940450Y456355D01*
X940364Y456713D01*
X940288Y457074D01*
X940221Y457436D01*
X940162Y457799D01*
X940113Y458164D01*
X940072Y458530D01*
X940041Y458897D01*
X940018Y459264D01*
X940005Y459632D01*
X940000Y460000D01*
X187200Y167550D02*
X187208Y168164D01*
X187230Y168777D01*
X187268Y169389D01*
X187320Y170000D01*
X187388Y170610D01*
X187471Y171218D01*
X187568Y171824D01*
X187680Y172427D01*
X187807Y173028D01*
X187949Y173625D01*
X188106Y174218D01*
X188276Y174807D01*
X188462Y175392D01*
X188661Y175972D01*
X188875Y176547D01*
X189103Y177117D01*
X189345Y177681D01*
X189600Y178239D01*
X189869Y178790D01*
X190152Y179335D01*
X190448Y179872D01*
X190757Y180403D01*
X191079Y180925D01*
X191413Y181439D01*
X191760Y181945D01*
X192120Y182442D01*
X192491Y182931D01*
X192875Y183410D01*
X193270Y183879D01*
X193676Y184339D01*
X194094Y184789D01*
X194522Y185228D01*
X194961Y185656D01*
X195411Y186074D01*
X195871Y186480D01*
X196340Y186875D01*
X196819Y187259D01*
X197308Y187630D01*
X197805Y187990D01*
X198311Y188337D01*
X198825Y188671D01*
X199347Y188993D01*
X199878Y189302D01*
X200415Y189598D01*
X200960Y189881D01*
X201511Y190150D01*
X202069Y190405D01*
X202633Y190647D01*
X203203Y190875D01*
X203778Y191089D01*
X204358Y191288D01*
X204943Y191474D01*
X205532Y191644D01*
X206125Y191801D01*
X206722Y191943D01*
X207323Y192070D01*
X207926Y192182D01*
X208532Y192279D01*
X209140Y192362D01*
X209750Y192430D01*
X210361Y192482D01*
X210973Y192520D01*
X211586Y192542D01*
X212200Y192550D01*
X212814Y192542D01*
X213427Y192520D01*
X214039Y192482D01*
X214650Y192430D01*
X215260Y192362D01*
X215868Y192279D01*
X216474Y192182D01*
X217077Y192070D01*
X217678Y191943D01*
X218275Y191801D01*
X218868Y191644D01*
X219457Y191474D01*
X220042Y191288D01*
X220622Y191089D01*
X221197Y190875D01*
X221767Y190647D01*
X222331Y190405D01*
X222889Y190150D01*
X223440Y189881D01*
X223985Y189598D01*
X224522Y189302D01*
X225053Y188993D01*
X225575Y188671D01*
X226089Y188337D01*
X226595Y187990D01*
X227092Y187630D01*
X227581Y187259D01*
X228060Y186875D01*
X228529Y186480D01*
X228989Y186074D01*
X229439Y185656D01*
X229878Y185228D01*
X230306Y184789D01*
X230724Y184339D01*
X231130Y183879D01*
X231525Y183410D01*
X231909Y182931D01*
X232280Y182442D01*
X232640Y181945D01*
X232987Y181439D01*
X233321Y180925D01*
X233643Y180403D01*
X233952Y179872D01*
X234248Y179335D01*
X234531Y178790D01*
X234800Y178239D01*
X235055Y177681D01*
X235297Y177117D01*
X235525Y176547D01*
X235739Y175972D01*
X235938Y175392D01*
X236124Y174807D01*
X236294Y174218D01*
X236451Y173625D01*
X236593Y173028D01*
X236720Y172427D01*
X236832Y171824D01*
X236929Y171218D01*
X237012Y170610D01*
X237080Y170000D01*
X237132Y169389D01*
X237170Y168777D01*
X237192Y168164D01*
X237200Y167550D01*
X237192Y166936D01*
X237170Y166323D01*
X237132Y165711D01*
X237080Y165100D01*
X237012Y164490D01*
X236929Y163882D01*
X236832Y163276D01*
X236720Y162673D01*
X236593Y162072D01*
X236451Y161475D01*
X236294Y160882D01*
X236124Y160293D01*
X235938Y159708D01*
X235739Y159128D01*
X235525Y158553D01*
X235297Y157983D01*
X235055Y157419D01*
X234800Y156861D01*
X234531Y156310D01*
X234248Y155765D01*
X233952Y155228D01*
X233643Y154697D01*
X233321Y154175D01*
X232987Y153661D01*
X232640Y153155D01*
X232280Y152658D01*
X231909Y152169D01*
X231525Y151690D01*
X231130Y151221D01*
X230724Y150761D01*
X230306Y150311D01*
X229878Y149872D01*
X229439Y149444D01*
X228989Y149026D01*
X228529Y148620D01*
X228060Y148225D01*
X227581Y147841D01*
X227092Y147470D01*
X226595Y147110D01*
X226089Y146763D01*
X225575Y146429D01*
X225053Y146107D01*
X224522Y145798D01*
X223985Y145502D01*
X223440Y145219D01*
X222889Y144950D01*
X222331Y144695D01*
X221767Y144453D01*
X221197Y144225D01*
X220622Y144011D01*
X220042Y143812D01*
X219457Y143626D01*
X218868Y143456D01*
X218275Y143299D01*
X217678Y143157D01*
X217077Y143030D01*
X216474Y142918D01*
X215868Y142821D01*
X215260Y142738D01*
X214650Y142670D01*
X214039Y142618D01*
X213427Y142580D01*
X212814Y142558D01*
X212200Y142550D01*
X211586Y142558D01*
X210973Y142580D01*
X210361Y142618D01*
X209750Y142670D01*
X209140Y142738D01*
X208532Y142821D01*
X207926Y142918D01*
X207323Y143030D01*
X206722Y143157D01*
X206125Y143299D01*
X205532Y143456D01*
X204943Y143626D01*
X204358Y143812D01*
X203778Y144011D01*
X203203Y144225D01*
X202633Y144453D01*
X202069Y144695D01*
X201511Y144950D01*
X200960Y145219D01*
X200415Y145502D01*
X199878Y145798D01*
X199347Y146107D01*
X198825Y146429D01*
X198311Y146763D01*
X197805Y147110D01*
X197308Y147470D01*
X196819Y147841D01*
X196340Y148225D01*
X195871Y148620D01*
X195411Y149026D01*
X194961Y149444D01*
X194522Y149872D01*
X194094Y150311D01*
X193676Y150761D01*
X193270Y151221D01*
X192875Y151690D01*
X192491Y152169D01*
X192120Y152658D01*
X191760Y153155D01*
X191413Y153661D01*
X191079Y154175D01*
X190757Y154697D01*
X190448Y155228D01*
X190152Y155765D01*
X189869Y156310D01*
X189600Y156861D01*
X189345Y157419D01*
X189103Y157983D01*
X188875Y158553D01*
X188661Y159128D01*
X188462Y159708D01*
X188276Y160293D01*
X188106Y160882D01*
X187949Y161475D01*
X187807Y162072D01*
X187680Y162673D01*
X187568Y163276D01*
X187471Y163882D01*
X187388Y164490D01*
X187320Y165100D01*
X187268Y165711D01*
X187230Y166323D01*
X187208Y166936D01*
X187200Y167550D01*
X187200Y317550D02*
X187208Y318164D01*
X187230Y318777D01*
X187268Y319389D01*
X187320Y320000D01*
X187388Y320610D01*
X187471Y321218D01*
X187568Y321824D01*
X187680Y322427D01*
X187807Y323028D01*
X187949Y323625D01*
X188106Y324218D01*
X188276Y324807D01*
X188462Y325392D01*
X188661Y325972D01*
X188875Y326547D01*
X189103Y327117D01*
X189345Y327681D01*
X189600Y328239D01*
X189869Y328790D01*
X190152Y329335D01*
X190448Y329872D01*
X190757Y330403D01*
X191079Y330925D01*
X191413Y331439D01*
X191760Y331945D01*
X192120Y332442D01*
X192491Y332931D01*
X192875Y333410D01*
X193270Y333879D01*
X193676Y334339D01*
X194094Y334789D01*
X194522Y335228D01*
X194961Y335656D01*
X195411Y336074D01*
X195871Y336480D01*
X196340Y336875D01*
X196819Y337259D01*
X197308Y337630D01*
X197805Y337990D01*
X198311Y338337D01*
X198825Y338671D01*
X199347Y338993D01*
X199878Y339302D01*
X200415Y339598D01*
X200960Y339881D01*
X201511Y340150D01*
X202069Y340405D01*
X202633Y340647D01*
X203203Y340875D01*
X203778Y341089D01*
X204358Y341288D01*
X204943Y341474D01*
X205532Y341644D01*
X206125Y341801D01*
X206722Y341943D01*
X207323Y342070D01*
X207926Y342182D01*
X208532Y342279D01*
X209140Y342362D01*
X209750Y342430D01*
X210361Y342482D01*
X210973Y342520D01*
X211586Y342542D01*
X212200Y342550D01*
X212814Y342542D01*
X213427Y342520D01*
X214039Y342482D01*
X214650Y342430D01*
X215260Y342362D01*
X215868Y342279D01*
X216474Y342182D01*
X217077Y342070D01*
X217678Y341943D01*
X218275Y341801D01*
X218868Y341644D01*
X219457Y341474D01*
X220042Y341288D01*
X220622Y341089D01*
X221197Y340875D01*
X221767Y340647D01*
X222331Y340405D01*
X222889Y340150D01*
X223440Y339881D01*
X223985Y339598D01*
X224522Y339302D01*
X225053Y338993D01*
X225575Y338671D01*
X226089Y338337D01*
X226595Y337990D01*
X227092Y337630D01*
X227581Y337259D01*
X228060Y336875D01*
X228529Y336480D01*
X228989Y336074D01*
X229439Y335656D01*
X229878Y335228D01*
X230306Y334789D01*
X230724Y334339D01*
X231130Y333879D01*
X231525Y333410D01*
X231909Y332931D01*
X232280Y332442D01*
X232640Y331945D01*
X232987Y331439D01*
X233321Y330925D01*
X233643Y330403D01*
X233952Y329872D01*
X234248Y329335D01*
X234531Y328790D01*
X234800Y328239D01*
X235055Y327681D01*
X235297Y327117D01*
X235525Y326547D01*
X235739Y325972D01*
X235938Y325392D01*
X236124Y324807D01*
X236294Y324218D01*
X236451Y323625D01*
X236593Y323028D01*
X236720Y322427D01*
X236832Y321824D01*
X236929Y321218D01*
X237012Y320610D01*
X237080Y320000D01*
X237132Y319389D01*
X237170Y318777D01*
X237192Y318164D01*
X237200Y317550D01*
X237192Y316936D01*
X237170Y316323D01*
X237132Y315711D01*
X237080Y315100D01*
X237012Y314490D01*
X236929Y313882D01*
X236832Y313276D01*
X236720Y312673D01*
X236593Y312072D01*
X236451Y311475D01*
X236294Y310882D01*
X236124Y310293D01*
X235938Y309708D01*
X235739Y309128D01*
X235525Y308553D01*
X235297Y307983D01*
X235055Y307419D01*
X234800Y306861D01*
X234531Y306310D01*
X234248Y305765D01*
X233952Y305228D01*
X233643Y304697D01*
X233321Y304175D01*
X232987Y303661D01*
X232640Y303155D01*
X232280Y302658D01*
X231909Y302169D01*
X231525Y301690D01*
X231130Y301221D01*
X230724Y300761D01*
X230306Y300311D01*
X229878Y299872D01*
X229439Y299444D01*
X228989Y299026D01*
X228529Y298620D01*
X228060Y298225D01*
X227581Y297841D01*
X227092Y297470D01*
X226595Y297110D01*
X226089Y296763D01*
X225575Y296429D01*
X225053Y296107D01*
X224522Y295798D01*
X223985Y295502D01*
X223440Y295219D01*
X222889Y294950D01*
X222331Y294695D01*
X221767Y294453D01*
X221197Y294225D01*
X220622Y294011D01*
X220042Y293812D01*
X219457Y293626D01*
X218868Y293456D01*
X218275Y293299D01*
X217678Y293157D01*
X217077Y293030D01*
X216474Y292918D01*
X215868Y292821D01*
X215260Y292738D01*
X214650Y292670D01*
X214039Y292618D01*
X213427Y292580D01*
X212814Y292558D01*
X212200Y292550D01*
X211586Y292558D01*
X210973Y292580D01*
X210361Y292618D01*
X209750Y292670D01*
X209140Y292738D01*
X208532Y292821D01*
X207926Y292918D01*
X207323Y293030D01*
X206722Y293157D01*
X206125Y293299D01*
X205532Y293456D01*
X204943Y293626D01*
X204358Y293812D01*
X203778Y294011D01*
X203203Y294225D01*
X202633Y294453D01*
X202069Y294695D01*
X201511Y294950D01*
X200960Y295219D01*
X200415Y295502D01*
X199878Y295798D01*
X199347Y296107D01*
X198825Y296429D01*
X198311Y296763D01*
X197805Y297110D01*
X197308Y297470D01*
X196819Y297841D01*
X196340Y298225D01*
X195871Y298620D01*
X195411Y299026D01*
X194961Y299444D01*
X194522Y299872D01*
X194094Y300311D01*
X193676Y300761D01*
X193270Y301221D01*
X192875Y301690D01*
X192491Y302169D01*
X192120Y302658D01*
X191760Y303155D01*
X191413Y303661D01*
X191079Y304175D01*
X190757Y304697D01*
X190448Y305228D01*
X190152Y305765D01*
X189869Y306310D01*
X189600Y306861D01*
X189345Y307419D01*
X189103Y307983D01*
X188875Y308553D01*
X188661Y309128D01*
X188462Y309708D01*
X188276Y310293D01*
X188106Y310882D01*
X187949Y311475D01*
X187807Y312072D01*
X187680Y312673D01*
X187568Y313276D01*
X187471Y313882D01*
X187388Y314490D01*
X187320Y315100D01*
X187268Y315711D01*
X187230Y316323D01*
X187208Y316936D01*
X187200Y317550D01*
X25000Y460000D02*
X25005Y460368D01*
X25018Y460736D01*
X25041Y461103D01*
X25072Y461470D01*
X25113Y461836D01*
X25162Y462201D01*
X25221Y462564D01*
X25288Y462926D01*
X25364Y463287D01*
X25450Y463645D01*
X25543Y464001D01*
X25646Y464354D01*
X25757Y464705D01*
X25877Y465053D01*
X26005Y465398D01*
X26142Y465740D01*
X26287Y466079D01*
X26440Y466413D01*
X26602Y466744D01*
X26771Y467071D01*
X26949Y467393D01*
X27134Y467712D01*
X27327Y468025D01*
X27528Y468334D01*
X27736Y468637D01*
X27952Y468935D01*
X28175Y469228D01*
X28405Y469516D01*
X28642Y469798D01*
X28886Y470073D01*
X29136Y470343D01*
X29393Y470607D01*
X29657Y470864D01*
X29927Y471114D01*
X30202Y471358D01*
X30484Y471595D01*
X30772Y471825D01*
X31065Y472048D01*
X31363Y472264D01*
X31666Y472472D01*
X31975Y472673D01*
X32288Y472866D01*
X32607Y473051D01*
X32929Y473229D01*
X33256Y473398D01*
X33587Y473560D01*
X33921Y473713D01*
X34260Y473858D01*
X34602Y473995D01*
X34947Y474123D01*
X35295Y474243D01*
X35646Y474354D01*
X35999Y474457D01*
X36355Y474550D01*
X36713Y474636D01*
X37074Y474712D01*
X37436Y474779D01*
X37799Y474838D01*
X38164Y474887D01*
X38530Y474928D01*
X38897Y474959D01*
X39264Y474982D01*
X39632Y474995D01*
X40000Y475000D01*
X40368Y474995D01*
X40736Y474982D01*
X41103Y474959D01*
X41470Y474928D01*
X41836Y474887D01*
X42201Y474838D01*
X42564Y474779D01*
X42926Y474712D01*
X43287Y474636D01*
X43645Y474550D01*
X44001Y474457D01*
X44354Y474354D01*
X44705Y474243D01*
X45053Y474123D01*
X45398Y473995D01*
X45740Y473858D01*
X46079Y473713D01*
X46413Y473560D01*
X46744Y473398D01*
X47071Y473229D01*
X47393Y473051D01*
X47712Y472866D01*
X48025Y472673D01*
X48334Y472472D01*
X48637Y472264D01*
X48935Y472048D01*
X49228Y471825D01*
X49516Y471595D01*
X49798Y471358D01*
X50073Y471114D01*
X50343Y470864D01*
X50607Y470607D01*
X50864Y470343D01*
X51114Y470073D01*
X51358Y469798D01*
X51595Y469516D01*
X51825Y469228D01*
X52048Y468935D01*
X52264Y468637D01*
X52472Y468334D01*
X52673Y468025D01*
X52866Y467712D01*
X53051Y467393D01*
X53229Y467071D01*
X53398Y466744D01*
X53560Y466413D01*
X53713Y466079D01*
X53858Y465740D01*
X53995Y465398D01*
X54123Y465053D01*
X54243Y464705D01*
X54354Y464354D01*
X54457Y464001D01*
X54550Y463645D01*
X54636Y463287D01*
X54712Y462926D01*
X54779Y462564D01*
X54838Y462201D01*
X54887Y461836D01*
X54928Y461470D01*
X54959Y461103D01*
X54982Y460736D01*
X54995Y460368D01*
X55000Y460000D01*
X54995Y459632D01*
X54982Y459264D01*
X54959Y458897D01*
X54928Y458530D01*
X54887Y458164D01*
X54838Y457799D01*
X54779Y457436D01*
X54712Y457074D01*
X54636Y456713D01*
X54550Y456355D01*
X54457Y455999D01*
X54354Y455646D01*
X54243Y455295D01*
X54123Y454947D01*
X53995Y454602D01*
X53858Y454260D01*
X53713Y453921D01*
X53560Y453587D01*
X53398Y453256D01*
X53229Y452929D01*
X53051Y452607D01*
X52866Y452288D01*
X52673Y451975D01*
X52472Y451666D01*
X52264Y451363D01*
X52048Y451065D01*
X51825Y450772D01*
X51595Y450484D01*
X51358Y450202D01*
X51114Y449927D01*
X50864Y449657D01*
X50607Y449393D01*
X50343Y449136D01*
X50073Y448886D01*
X49798Y448642D01*
X49516Y448405D01*
X49228Y448175D01*
X48935Y447952D01*
X48637Y447736D01*
X48334Y447528D01*
X48025Y447327D01*
X47712Y447134D01*
X47393Y446949D01*
X47071Y446771D01*
X46744Y446602D01*
X46413Y446440D01*
X46079Y446287D01*
X45740Y446142D01*
X45398Y446005D01*
X45053Y445877D01*
X44705Y445757D01*
X44354Y445646D01*
X44001Y445543D01*
X43645Y445450D01*
X43287Y445364D01*
X42926Y445288D01*
X42564Y445221D01*
X42201Y445162D01*
X41836Y445113D01*
X41470Y445072D01*
X41103Y445041D01*
X40736Y445018D01*
X40368Y445005D01*
X40000Y445000D01*
X39632Y445005D01*
X39264Y445018D01*
X38897Y445041D01*
X38530Y445072D01*
X38164Y445113D01*
X37799Y445162D01*
X37436Y445221D01*
X37074Y445288D01*
X36713Y445364D01*
X36355Y445450D01*
X35999Y445543D01*
X35646Y445646D01*
X35295Y445757D01*
X34947Y445877D01*
X34602Y446005D01*
X34260Y446142D01*
X33921Y446287D01*
X33587Y446440D01*
X33256Y446602D01*
X32929Y446771D01*
X32607Y446949D01*
X32288Y447134D01*
X31975Y447327D01*
X31666Y447528D01*
X31363Y447736D01*
X31065Y447952D01*
X30772Y448175D01*
X30484Y448405D01*
X30202Y448642D01*
X29927Y448886D01*
X29657Y449136D01*
X29393Y449393D01*
X29136Y449657D01*
X28886Y449927D01*
X28642Y450202D01*
X28405Y450484D01*
X28175Y450772D01*
X27952Y451065D01*
X27736Y451363D01*
X27528Y451666D01*
X27327Y451975D01*
X27134Y452288D01*
X26949Y452607D01*
X26771Y452929D01*
X26602Y453256D01*
X26440Y453587D01*
X26287Y453921D01*
X26142Y454260D01*
X26005Y454602D01*
X25877Y454947D01*
X25757Y455295D01*
X25646Y455646D01*
X25543Y455999D01*
X25450Y456355D01*
X25364Y456713D01*
X25288Y457074D01*
X25221Y457436D01*
X25162Y457799D01*
X25113Y458164D01*
X25072Y458530D01*
X25041Y458897D01*
X25018Y459264D01*
X25005Y459632D01*
X25000Y460000D01*
X35125Y282575D02*
X35129Y282882D01*
X35140Y283188D01*
X35159Y283495D01*
X35185Y283800D01*
X35219Y284105D01*
X35260Y284409D01*
X35309Y284712D01*
X35365Y285014D01*
X35429Y285314D01*
X35500Y285612D01*
X35578Y285909D01*
X35663Y286204D01*
X35756Y286496D01*
X35856Y286786D01*
X35963Y287074D01*
X36077Y287359D01*
X36197Y287641D01*
X36325Y287919D01*
X36460Y288195D01*
X36601Y288467D01*
X36749Y288736D01*
X36903Y289001D01*
X37064Y289262D01*
X37232Y289520D01*
X37405Y289773D01*
X37585Y290021D01*
X37771Y290265D01*
X37962Y290505D01*
X38160Y290740D01*
X38363Y290969D01*
X38572Y291194D01*
X38786Y291414D01*
X39006Y291628D01*
X39231Y291837D01*
X39460Y292040D01*
X39695Y292238D01*
X39935Y292429D01*
X40179Y292615D01*
X40427Y292795D01*
X40680Y292968D01*
X40938Y293136D01*
X41199Y293297D01*
X41464Y293451D01*
X41733Y293599D01*
X42005Y293740D01*
X42281Y293875D01*
X42559Y294003D01*
X42841Y294123D01*
X43126Y294237D01*
X43414Y294344D01*
X43704Y294444D01*
X43996Y294537D01*
X44291Y294622D01*
X44588Y294700D01*
X44886Y294771D01*
X45186Y294835D01*
X45488Y294891D01*
X45791Y294940D01*
X46095Y294981D01*
X46400Y295015D01*
X46705Y295041D01*
X47012Y295060D01*
X47318Y295071D01*
X47625Y295075D01*
X47932Y295071D01*
X48238Y295060D01*
X48545Y295041D01*
X48850Y295015D01*
X49155Y294981D01*
X49459Y294940D01*
X49762Y294891D01*
X50064Y294835D01*
X50364Y294771D01*
X50662Y294700D01*
X50959Y294622D01*
X51254Y294537D01*
X51546Y294444D01*
X51836Y294344D01*
X52124Y294237D01*
X52409Y294123D01*
X52691Y294003D01*
X52969Y293875D01*
X53245Y293740D01*
X53517Y293599D01*
X53786Y293451D01*
X54051Y293297D01*
X54312Y293136D01*
X54570Y292968D01*
X54823Y292795D01*
X55071Y292615D01*
X55315Y292429D01*
X55555Y292238D01*
X55790Y292040D01*
X56019Y291837D01*
X56244Y291628D01*
X56464Y291414D01*
X56678Y291194D01*
X56887Y290969D01*
X57090Y290740D01*
X57288Y290505D01*
X57479Y290265D01*
X57665Y290021D01*
X57845Y289773D01*
X58018Y289520D01*
X58186Y289262D01*
X58347Y289001D01*
X58501Y288736D01*
X58649Y288467D01*
X58790Y288195D01*
X58925Y287919D01*
X59053Y287641D01*
X59173Y287359D01*
X59287Y287074D01*
X59394Y286786D01*
X59494Y286496D01*
X59587Y286204D01*
X59672Y285909D01*
X59750Y285612D01*
X59821Y285314D01*
X59885Y285014D01*
X59941Y284712D01*
X59990Y284409D01*
X60031Y284105D01*
X60065Y283800D01*
X60091Y283495D01*
X60110Y283188D01*
X60121Y282882D01*
X60125Y282575D01*
X60121Y282268D01*
X60110Y281962D01*
X60091Y281655D01*
X60065Y281350D01*
X60031Y281045D01*
X59990Y280741D01*
X59941Y280438D01*
X59885Y280136D01*
X59821Y279836D01*
X59750Y279538D01*
X59672Y279241D01*
X59587Y278946D01*
X59494Y278654D01*
X59394Y278364D01*
X59287Y278076D01*
X59173Y277791D01*
X59053Y277509D01*
X58925Y277231D01*
X58790Y276955D01*
X58649Y276683D01*
X58501Y276414D01*
X58347Y276149D01*
X58186Y275888D01*
X58018Y275630D01*
X57845Y275377D01*
X57665Y275129D01*
X57479Y274885D01*
X57288Y274645D01*
X57090Y274410D01*
X56887Y274181D01*
X56678Y273956D01*
X56464Y273736D01*
X56244Y273522D01*
X56019Y273313D01*
X55790Y273110D01*
X55555Y272912D01*
X55315Y272721D01*
X55071Y272535D01*
X54823Y272355D01*
X54570Y272182D01*
X54312Y272014D01*
X54051Y271853D01*
X53786Y271699D01*
X53517Y271551D01*
X53245Y271410D01*
X52969Y271275D01*
X52691Y271147D01*
X52409Y271027D01*
X52124Y270913D01*
X51836Y270806D01*
X51546Y270706D01*
X51254Y270613D01*
X50959Y270528D01*
X50662Y270450D01*
X50364Y270379D01*
X50064Y270315D01*
X49762Y270259D01*
X49459Y270210D01*
X49155Y270169D01*
X48850Y270135D01*
X48545Y270109D01*
X48238Y270090D01*
X47932Y270079D01*
X47625Y270075D01*
X47318Y270079D01*
X47012Y270090D01*
X46705Y270109D01*
X46400Y270135D01*
X46095Y270169D01*
X45791Y270210D01*
X45488Y270259D01*
X45186Y270315D01*
X44886Y270379D01*
X44588Y270450D01*
X44291Y270528D01*
X43996Y270613D01*
X43704Y270706D01*
X43414Y270806D01*
X43126Y270913D01*
X42841Y271027D01*
X42559Y271147D01*
X42281Y271275D01*
X42005Y271410D01*
X41733Y271551D01*
X41464Y271699D01*
X41199Y271853D01*
X40938Y272014D01*
X40680Y272182D01*
X40427Y272355D01*
X40179Y272535D01*
X39935Y272721D01*
X39695Y272912D01*
X39460Y273110D01*
X39231Y273313D01*
X39006Y273522D01*
X38786Y273736D01*
X38572Y273956D01*
X38363Y274181D01*
X38160Y274410D01*
X37962Y274645D01*
X37771Y274885D01*
X37585Y275129D01*
X37405Y275377D01*
X37232Y275630D01*
X37064Y275888D01*
X36903Y276149D01*
X36749Y276414D01*
X36601Y276683D01*
X36460Y276955D01*
X36325Y277231D01*
X36197Y277509D01*
X36077Y277791D01*
X35963Y278076D01*
X35856Y278364D01*
X35756Y278654D01*
X35663Y278946D01*
X35578Y279241D01*
X35500Y279538D01*
X35429Y279836D01*
X35365Y280136D01*
X35309Y280438D01*
X35260Y280741D01*
X35219Y281045D01*
X35185Y281350D01*
X35159Y281655D01*
X35140Y281962D01*
X35129Y282268D01*
X35125Y282575D01*
D13*
X0Y0D02*
X993050Y600D01*
X993050Y500950D01*
X0Y500350D01*
X0Y0D01*
X970000Y459464D02*
X969924Y458396D01*
X969771Y457335D01*
X969543Y456288D01*
X969241Y455260D01*
X968867Y454256D01*
X968422Y453281D01*
X967908Y452341D01*
X967329Y451440D01*
X966687Y450582D01*
X965985Y449772D01*
X965228Y449015D01*
X964418Y448313D01*
X963560Y447671D01*
X962659Y447092D01*
X961719Y446578D01*
X960744Y446133D01*
X959740Y445759D01*
X958712Y445457D01*
X957665Y445229D01*
X956604Y445076D01*
X955536Y445000D01*
X954464Y445000D01*
X953396Y445076D01*
X952335Y445229D01*
X951288Y445457D01*
X950260Y445759D01*
X949256Y446133D01*
X948281Y446578D01*
X947341Y447092D01*
X946440Y447671D01*
X945582Y448313D01*
X944772Y449015D01*
X944015Y449772D01*
X943313Y450582D01*
X942671Y451440D01*
X942092Y452341D01*
X941578Y453281D01*
X941133Y454256D01*
X940759Y455260D01*
X940457Y456288D01*
X940229Y457335D01*
X940076Y458396D01*
X940000Y459464D01*
X940000Y460536D01*
X940076Y461604D01*
X940229Y462665D01*
X940457Y463712D01*
X940759Y464740D01*
X941133Y465744D01*
X941578Y466719D01*
X942092Y467659D01*
X942671Y468560D01*
X943313Y469418D01*
X944015Y470228D01*
X944772Y470985D01*
X945582Y471687D01*
X946440Y472329D01*
X947341Y472908D01*
X948281Y473422D01*
X949256Y473867D01*
X950260Y474241D01*
X951288Y474543D01*
X952335Y474771D01*
X953396Y474924D01*
X954464Y475000D01*
X955536Y475000D01*
X956604Y474924D01*
X957665Y474771D01*
X958712Y474543D01*
X959740Y474241D01*
X960744Y473867D01*
X961719Y473422D01*
X962659Y472908D01*
X963560Y472329D01*
X964418Y471687D01*
X965228Y470985D01*
X965985Y470228D01*
X966687Y469418D01*
X967329Y468560D01*
X967908Y467659D01*
X968422Y466719D01*
X968867Y465744D01*
X969241Y464740D01*
X969543Y463712D01*
X969771Y462665D01*
X969924Y461604D01*
X970000Y460536D01*
X970000Y459464D01*
X212901Y192550D02*
X214302Y192471D01*
X215696Y192314D01*
X217079Y192079D01*
X218447Y191767D01*
X219795Y191379D01*
X221119Y190915D01*
X222415Y190379D01*
X223679Y189770D01*
X224907Y189091D01*
X226095Y188345D01*
X227239Y187533D01*
X228336Y186658D01*
X229382Y185724D01*
X230374Y184732D01*
X231308Y183686D01*
X232183Y182589D01*
X232995Y181445D01*
X233741Y180257D01*
X234420Y179029D01*
X235029Y177765D01*
X235565Y176469D01*
X236029Y175145D01*
X236417Y173797D01*
X236729Y172429D01*
X236964Y171046D01*
X237121Y169652D01*
X237200Y168251D01*
X237200Y166849D01*
X237121Y165448D01*
X236964Y164054D01*
X236729Y162671D01*
X236417Y161303D01*
X236029Y159955D01*
X235565Y158631D01*
X235029Y157335D01*
X234420Y156071D01*
X233741Y154843D01*
X232995Y153655D01*
X232183Y152511D01*
X231308Y151414D01*
X230374Y150368D01*
X229382Y149376D01*
X228336Y148442D01*
X227239Y147567D01*
X226095Y146755D01*
X224907Y146009D01*
X223679Y145330D01*
X222415Y144721D01*
X221119Y144185D01*
X219795Y143721D01*
X218447Y143333D01*
X217079Y143021D01*
X215696Y142786D01*
X214302Y142629D01*
X212901Y142550D01*
X211499Y142550D01*
X210098Y142629D01*
X208704Y142786D01*
X207321Y143021D01*
X205953Y143333D01*
X204605Y143721D01*
X203281Y144185D01*
X201985Y144721D01*
X200721Y145330D01*
X199493Y146009D01*
X198305Y146755D01*
X197161Y147567D01*
X196064Y148442D01*
X195018Y149376D01*
X194026Y150368D01*
X193092Y151414D01*
X192217Y152511D01*
X191405Y153655D01*
X190659Y154843D01*
X189980Y156071D01*
X189371Y157335D01*
X188835Y158631D01*
X188371Y159955D01*
X187983Y161303D01*
X187671Y162671D01*
X187436Y164054D01*
X187279Y165448D01*
X187200Y166849D01*
X187200Y168251D01*
X187279Y169652D01*
X187436Y171046D01*
X187671Y172429D01*
X187983Y173797D01*
X188371Y175145D01*
X188835Y176469D01*
X189371Y177765D01*
X189980Y179029D01*
X190659Y180257D01*
X191405Y181445D01*
X192217Y182589D01*
X193092Y183686D01*
X194026Y184732D01*
X195018Y185724D01*
X196064Y186658D01*
X197161Y187533D01*
X198305Y188345D01*
X199493Y189091D01*
X200721Y189770D01*
X201985Y190379D01*
X203281Y190915D01*
X204605Y191379D01*
X205953Y191767D01*
X207321Y192079D01*
X208704Y192314D01*
X210098Y192471D01*
X211499Y192550D01*
X212901Y192550D01*
X212901Y342550D02*
X214302Y342471D01*
X215696Y342314D01*
X217079Y342079D01*
X218447Y341767D01*
X219795Y341379D01*
X221119Y340915D01*
X222415Y340379D01*
X223679Y339770D01*
X224907Y339091D01*
X226095Y338345D01*
X227239Y337533D01*
X228336Y336658D01*
X229382Y335724D01*
X230374Y334732D01*
X231308Y333686D01*
X232183Y332589D01*
X232995Y331445D01*
X233741Y330257D01*
X234420Y329029D01*
X235029Y327765D01*
X235565Y326469D01*
X236029Y325145D01*
X236417Y323797D01*
X236729Y322429D01*
X236964Y321046D01*
X237121Y319652D01*
X237200Y318251D01*
X237200Y316849D01*
X237121Y315448D01*
X236964Y314054D01*
X236729Y312671D01*
X236417Y311303D01*
X236029Y309955D01*
X235565Y308631D01*
X235029Y307335D01*
X234420Y306071D01*
X233741Y304843D01*
X232995Y303655D01*
X232183Y302511D01*
X231308Y301414D01*
X230374Y300368D01*
X229382Y299376D01*
X228336Y298442D01*
X227239Y297567D01*
X226095Y296755D01*
X224907Y296009D01*
X223679Y295330D01*
X222415Y294721D01*
X221119Y294185D01*
X219795Y293721D01*
X218447Y293333D01*
X217079Y293021D01*
X215696Y292786D01*
X214302Y292629D01*
X212901Y292550D01*
X211499Y292550D01*
X210098Y292629D01*
X208704Y292786D01*
X207321Y293021D01*
X205953Y293333D01*
X204605Y293721D01*
X203281Y294185D01*
X201985Y294721D01*
X200721Y295330D01*
X199493Y296009D01*
X198305Y296755D01*
X197161Y297567D01*
X196064Y298442D01*
X195018Y299376D01*
X194026Y300368D01*
X193092Y301414D01*
X192217Y302511D01*
X191405Y303655D01*
X190659Y304843D01*
X189980Y306071D01*
X189371Y307335D01*
X188835Y308631D01*
X188371Y309955D01*
X187983Y311303D01*
X187671Y312671D01*
X187436Y314054D01*
X187279Y315448D01*
X187200Y316849D01*
X187200Y318251D01*
X187279Y319652D01*
X187436Y321046D01*
X187671Y322429D01*
X187983Y323797D01*
X188371Y325145D01*
X188835Y326469D01*
X189371Y327765D01*
X189980Y329029D01*
X190659Y330257D01*
X191405Y331445D01*
X192217Y332589D01*
X193092Y333686D01*
X194026Y334732D01*
X195018Y335724D01*
X196064Y336658D01*
X197161Y337533D01*
X198305Y338345D01*
X199493Y339091D01*
X200721Y339770D01*
X201985Y340379D01*
X203281Y340915D01*
X204605Y341379D01*
X205953Y341767D01*
X207321Y342079D01*
X208704Y342314D01*
X210098Y342471D01*
X211499Y342550D01*
X212901Y342550D01*
X55000Y459464D02*
X54924Y458396D01*
X54771Y457335D01*
X54543Y456288D01*
X54241Y455260D01*
X53867Y454256D01*
X53422Y453281D01*
X52908Y452341D01*
X52329Y451440D01*
X51687Y450582D01*
X50985Y449772D01*
X50228Y449015D01*
X49418Y448313D01*
X48560Y447671D01*
X47659Y447092D01*
X46719Y446578D01*
X45744Y446133D01*
X44740Y445759D01*
X43712Y445457D01*
X42665Y445229D01*
X41604Y445076D01*
X40536Y445000D01*
X39464Y445000D01*
X38396Y445076D01*
X37335Y445229D01*
X36288Y445457D01*
X35260Y445759D01*
X34256Y446133D01*
X33281Y446578D01*
X32341Y447092D01*
X31440Y447671D01*
X30582Y448313D01*
X29772Y449015D01*
X29015Y449772D01*
X28313Y450582D01*
X27671Y451440D01*
X27092Y452341D01*
X26578Y453281D01*
X26133Y454256D01*
X25759Y455260D01*
X25457Y456288D01*
X25229Y457335D01*
X25076Y458396D01*
X25000Y459464D01*
X25000Y460536D01*
X25076Y461604D01*
X25229Y462665D01*
X25457Y463712D01*
X25759Y464740D01*
X26133Y465744D01*
X26578Y466719D01*
X27092Y467659D01*
X27671Y468560D01*
X28313Y469418D01*
X29015Y470228D01*
X29772Y470985D01*
X30582Y471687D01*
X31440Y472329D01*
X32341Y472908D01*
X33281Y473422D01*
X34256Y473867D01*
X35260Y474241D01*
X36288Y474543D01*
X37335Y474771D01*
X38396Y474924D01*
X39464Y475000D01*
X40536Y475000D01*
X41604Y474924D01*
X42665Y474771D01*
X43712Y474543D01*
X44740Y474241D01*
X45744Y473867D01*
X46719Y473422D01*
X47659Y472908D01*
X48560Y472329D01*
X49418Y471687D01*
X50228Y470985D01*
X50985Y470228D01*
X51687Y469418D01*
X52329Y468560D01*
X52908Y467659D01*
X53422Y466719D01*
X53867Y465744D01*
X54241Y464740D01*
X54543Y463712D01*
X54771Y462665D01*
X54924Y461604D01*
X55000Y460536D01*
X55000Y459464D01*
X47134Y270075D02*
X46155Y270152D01*
X45185Y270306D01*
X44229Y270535D01*
X43295Y270839D01*
X42388Y271214D01*
X41513Y271660D01*
X40675Y272174D01*
X39880Y272751D01*
X39133Y273389D01*
X38439Y274083D01*
X37801Y274830D01*
X37224Y275625D01*
X36710Y276463D01*
X36264Y277338D01*
X35889Y278245D01*
X35585Y279179D01*
X35356Y280135D01*
X35202Y281105D01*
X35125Y282084D01*
X35125Y283066D01*
X35202Y284045D01*
X35356Y285016D01*
X35585Y285971D01*
X35889Y286905D01*
X36264Y287812D01*
X36710Y288687D01*
X37224Y289525D01*
X37801Y290320D01*
X38439Y291067D01*
X39133Y291761D01*
X39880Y292399D01*
X40675Y292976D01*
X41513Y293490D01*
X42388Y293936D01*
X43295Y294311D01*
X44229Y294615D01*
X45185Y294844D01*
X46155Y294998D01*
X47134Y295075D01*
X48116Y295075D01*
X49095Y294998D01*
X50066Y294844D01*
X51021Y294615D01*
X51955Y294311D01*
X52862Y293936D01*
X53737Y293490D01*
X54575Y292976D01*
X55370Y292399D01*
X56117Y291761D01*
X56811Y291067D01*
X57449Y290320D01*
X58026Y289525D01*
X58540Y288687D01*
X58986Y287812D01*
X59361Y286905D01*
X59665Y285971D01*
X59894Y285016D01*
X60048Y284045D01*
X60125Y283066D01*
X60125Y282084D01*
X60048Y281105D01*
X59894Y280135D01*
X59665Y279179D01*
X59361Y278245D01*
X58986Y277338D01*
X58540Y276463D01*
X58026Y275625D01*
X57449Y274830D01*
X56811Y274083D01*
X56117Y273389D01*
X55370Y272751D01*
X54575Y272174D01*
X53737Y271660D01*
X52862Y271214D01*
X51955Y270839D01*
X51021Y270535D01*
X50066Y270306D01*
X49095Y270152D01*
X48116Y270075D01*
X47134Y270075D01*
M02*
