M48
;GenerationSoftware,Autodesk,EAGLE,9.6.2*%
;CreationDate,2022-08-16T20:18:20Z*%
FMAT,2
ICI,OFF
METRIC,TZ,000.000
T12C0.300
T11C0.350
T10C0.500
T9C0.650
T8C1.000
T7C1.016
T6C1.200
T5C1.300
T4C1.321
T3C2.500
T2C3.000
T1C5.000
%
G90
M71
T1
X21220Y31755
X21220Y16755
T2
X4000Y46000
X95500Y46000
X4000Y4000
X95500Y4000
T3
X4763Y28257
T4
X4763Y38672
X4763Y17844
X4763Y20638
X4763Y35878
X4763Y33592
X4763Y22923
T5
X15985Y46355
X29955Y46355
X24655Y46355
X10685Y46355
T6
X80800Y45700
X94615Y23820
X94615Y27320
X94615Y20320
X87800Y45700
X94615Y11581
X94615Y15081
X84300Y45700
T7
X54361Y47407
X51821Y47407
X49281Y47407
X72041Y46355
X41661Y47407
X44201Y47407
X89059Y2540
X39121Y47407
X64421Y46355
X61881Y46355
X59341Y46355
X66961Y46355
X69501Y46355
X74581Y46355
X34925Y10160
X37465Y10160
X40005Y10160
X46741Y47407
X68739Y2540
X76359Y2540
X78899Y2540
X35719Y2540
X33179Y2540
X30639Y2540
X38259Y2540
X48419Y2540
X45879Y2540
X43339Y2540
X50959Y2540
X17939Y2540
X86519Y2540
X83979Y2540
X25559Y2540
X73819Y2540
X23019Y2540
X63659Y2540
X12859Y2540
X10319Y2540
X56039Y2540
X58579Y2540
X61119Y2540
X20479Y2540
X84301Y47407
X86841Y47407
X83979Y29210
X81439Y29210
X78899Y29210
X86519Y29210
X89059Y29210
X71279Y2540
X81761Y47407
T8
X59690Y13970
X59690Y11430
X71120Y22860
X73660Y22860
X90170Y10160
X87630Y10160
X85090Y10160
X82550Y10160
X80010Y10160
X77470Y10160
X69850Y10160
X64770Y10160
X62230Y10160
X74930Y10160
X90170Y25400
X87630Y25400
X85090Y25400
X82550Y25400
X80010Y25400
X77470Y25400
X67310Y10160
X74930Y25400
X72390Y25400
X69850Y25400
X67310Y25400
X64770Y25400
X62230Y25400
X90170Y22860
X90170Y20320
X90170Y17780
X59690Y24130
X59690Y21590
X59690Y19050
X59690Y16510
X72390Y10160
T9
X28820Y38195
X13580Y38195
X21220Y10255
X28820Y10255
T10
X34608Y30162
X38735Y31432
X32702Y30162
T11
X58261Y44291
X55721Y41751
X55721Y44291
X77788Y38894
X73343Y39053
X54610Y32062
X50800Y40640
X50800Y43498
X41910Y43498
X32702Y21590
X32702Y24130
X32702Y25400
X85090Y16510
X88265Y43498
X92075Y40640
X90487Y43498
X83661Y43498
X59300Y43498
X75248Y21431
X72250Y17258
X73722Y11872
X73611Y9574
X72390Y21431
X72131Y18039
X81200Y15700
X87183Y40799
X83979Y8255
X95567Y8255
X66993Y8255
X55245Y8255
X34925Y8255
X30639Y8255
X32702Y27940
X17939Y8255
X98642Y8255
X82233Y23177
X69850Y8255
X48428Y8255
X90170Y15240
X66993Y2540
X81915Y13652
X42069Y8255
X76994Y28099
X62389Y26829
X68680Y26829
X73184Y28099
X89059Y7454
X78899Y7454
X21220Y7454
X58102Y25717
X58102Y16510
X58102Y9208
X56197Y9208
X56197Y7454
X79375Y16510
X69215Y16510
X41275Y7454
X36830Y5398
X40958Y5398
X67769Y7454
X76835Y5080
X78899Y5080
X66199Y6191
X67769Y6191
X47307Y3969
X72390Y29051
X76850Y27161
X66900Y49300
X69500Y49100
X61900Y49400
X60900Y40400
X69056Y20479
X60642Y15240
X76041Y26511
X41275Y1587
X76041Y15716
X76041Y10795
X75089Y36513
X78581Y37148
X73184Y14446
X46196Y4604
X49212Y4604
X87630Y16192
X87630Y13652
X91916Y9525
X91757Y5080
X87947Y5080
X92551Y9525
X88106Y14287
X88106Y20161
X52864Y3651
X82868Y3651
X92392Y14446
X92392Y16351
X80645Y17304
X80328Y15716
X81280Y9208
X63976Y6032
X81280Y4087
X76835Y4128
X78105Y13652
X78105Y12382
X72708Y13017
X56515Y12700
X68580Y21907
X67945Y17780
X71596Y11430
X68500Y11400
X67000Y19200
X67000Y17900
X68400Y9200
X74136Y12382
X73343Y15716
X80010Y5874
X37783Y26670
X37783Y22860
X37783Y20320
X37783Y18098
X90805Y36830
X85725Y38418
X85725Y35303
X73343Y44609
X73343Y42386
X58737Y37306
X42863Y40323
X49371Y30480
X49428Y18098
X42863Y44291
X91281Y40640
X78581Y44609
T12
X54610Y36513
X45720Y20320
X44291Y29686
X51594Y42704
X45720Y25559
X83344Y9049
X76994Y6667
X76200Y17526
X33655Y12827
X60007Y36036
X69850Y41751
X46196Y26352
M30